<svg width="140" height="153" viewBox="0 0 140 153" fill="none" xmlns="http://www.w3.org/2000/svg">
<mask id="mask0_1_105" style="mask-type:luminance" maskUnits="userSpaceOnUse" x="44" y="81" width="42" height="34">
<path d="M44.2753 114.804C67.9404 109.317 80.6488 97.708 85.8085 81.7596C78.5494 82.7523 75.267 84.3849 72.0884 84.9689C66.1275 99.5804 54.0271 109.422 44.2759 114.804" fill="white"/>
</mask>
<g mask="url(#mask0_1_105)">
<path d="M85.8085 81.7596H44.2753V114.804H85.8085V81.7596Z" fill="url(#paint0_linear_1_105)"/>
</g>
<mask id="mask1_1_105" style="mask-type:luminance" maskUnits="userSpaceOnUse" x="54" y="82" width="33" height="43">
<path d="M54.0075 124.591C75.6032 113.467 85.0772 99.0958 86.1668 82.3689C79.3727 85.1119 76.591 87.4997 73.6529 88.8451C71.4577 104.472 62.1409 116.982 54.0075 124.591Z" fill="white"/>
</mask>
<g mask="url(#mask1_1_105)">
<path d="M86.1668 82.3689H54.0075V124.591H86.1668V82.3689Z" fill="url(#paint1_linear_1_105)"/>
</g>
<mask id="mask2_1_105" style="mask-type:luminance" maskUnits="userSpaceOnUse" x="68" y="87" width="18" height="42">
<path d="M68.2871 128.533C83.2041 114.744 87.6275 101.047 84.7686 87.3255C79.9065 91.0538 78.1984 93.5993 76.1315 95.3398C77.8542 108.422 73.1412 120.584 68.2871 128.533Z" fill="white"/>
</mask>
<g mask="url(#mask2_1_105)">
<path d="M87.6275 87.3255H68.2871V128.533H87.6275V87.3255Z" fill="url(#paint2_linear_1_105)"/>
</g>
<mask id="mask3_1_105" style="mask-type:luminance" maskUnits="userSpaceOnUse" x="10" y="29" width="79" height="99">
<path d="M15.5272 44.1327C23.7293 5.92356 74.5873 54.3846 82.0354 68.7482C82.0354 68.7482 98.5475 101.467 77.7542 127.152C91.5393 98.7479 68.7356 86.5273 48.4828 79.3037C25.8839 71.2428 29.3067 54.5244 21.3599 50.5084C17.4297 48.5224 13.2541 50.5108 11.0172 54.5294C10.4227 51.0139 10.7399 48.2991 15.5272 44.1327Z" fill="white"/>
</mask>
<g mask="url(#mask3_1_105)">
<path d="M98.5481 5.92355H10.4233V127.153H98.5481V5.92355Z" fill="url(#paint3_linear_1_105)"/>
</g>
<path fill-rule="evenodd" clip-rule="evenodd" d="M79.4868 123.181C89.3583 97.589 67.765 86.1819 48.4828 79.3038C25.8839 71.2428 29.3067 54.5245 21.3599 50.5084C17.4297 48.5224 13.2541 50.5109 11.0172 54.5294C11.0172 54.5294 19.0555 28.5347 51.9117 57.9301C51.9117 57.9301 97.5309 78.3632 79.4862 123.181" fill="#990038"/>
<path d="M25.0275 54.2122C47.3662 75.9472 65.522 -6.98049 127.751 1.62959C67.8098 7.62364 70.5743 76.6491 38.8592 74.4263" stroke="#231916" stroke-width="0.57" stroke-miterlimit="22.93"/>
<mask id="mask4_1_105" style="mask-type:luminance" maskUnits="userSpaceOnUse" x="53" y="54" width="10" height="29">
<path d="M59.0586 82.6358C63.9618 70.5256 62.7838 61.3431 57.361 54.141C55.5529 57.6424 54.148 60.6283 53.4216 62.2075C56.664 70.5176 58.8714 78.932 59.058 82.6358" fill="white"/>
</mask>
<g mask="url(#mask4_1_105)">
<path d="M63.9625 54.141H53.4223V82.6358H63.9625V54.141Z" fill="url(#paint4_linear_1_105)"/>
</g>
<mask id="mask5_1_105" style="mask-type:luminance" maskUnits="userSpaceOnUse" x="57" y="44" width="14" height="41">
<path d="M68.3871 84.4493C73.3719 66.7727 70.3105 54.1245 61.6243 44.8972C59.6377 50.0679 58.1346 54.4564 57.3634 56.7749C63.1746 67.8862 67.5558 79.3025 68.3871 84.4493Z" fill="white"/>
</mask>
<g mask="url(#mask5_1_105)">
<path d="M73.3719 44.8972H57.3634V84.4493H73.3719V44.8972Z" fill="url(#paint5_linear_1_105)"/>
</g>
<mask id="mask6_1_105" style="mask-type:luminance" maskUnits="userSpaceOnUse" x="64" y="41" width="19" height="43">
<path d="M81.8777 83.9996C84.5256 63.8591 79.1653 50.501 68.1908 41.7811C66.838 47.7568 65.3262 51.7299 64.8502 54.3907C72.9762 65.6297 80.1494 78.4982 81.8771 83.9996" fill="white"/>
</mask>
<g mask="url(#mask6_1_105)">
<path d="M84.5257 41.7818H64.8508V84.0003H84.5257V41.7818Z" fill="url(#paint6_linear_1_105)"/>
</g>
<mask id="mask7_1_105" style="mask-type:luminance" maskUnits="userSpaceOnUse" x="69" y="39" width="25" height="45">
<path d="M92.4136 83.3885C96.048 60.478 87.9852 46.9525 72.6019 39.0945C71.4142 41.2823 70.3068 43.4039 69.308 45.369C80.1206 58.0344 90.4111 76.3632 92.4136 83.3885Z" fill="white"/>
</mask>
<g mask="url(#mask7_1_105)">
<path d="M96.0472 39.0945H69.3071V83.3885H96.0472V39.0945Z" fill="url(#paint7_linear_1_105)"/>
</g>
<mask id="mask8_1_105" style="mask-type:luminance" maskUnits="userSpaceOnUse" x="70" y="37" width="43" height="40">
<path d="M112.72 76.2447C108.326 49.863 93.7995 39.2093 73.1547 37.6546C72.2682 39.2583 71.424 40.8357 70.6332 42.3486C87.1588 50.6599 107.746 68.9752 112.72 76.2447Z" fill="white"/>
</mask>
<g mask="url(#mask8_1_105)">
<path d="M112.72 37.6546H70.6332V76.2447H112.72V37.6546Z" fill="url(#paint8_linear_1_105)"/>
</g>
<mask id="mask9_1_105" style="mask-type:luminance" maskUnits="userSpaceOnUse" x="71" y="32" width="60" height="32">
<path d="M130.749 63.5622C117.271 36.5043 98.2898 28.9359 75.7726 33.0661C74.4173 35.3619 73.1222 37.6828 71.9228 39.9154C93.4105 43.6793 122.672 57.1153 130.749 63.5622Z" fill="white"/>
</mask>
<g mask="url(#mask9_1_105)">
<path d="M130.749 28.9359H71.9228V63.5622H130.749V28.9359Z" fill="url(#paint9_linear_1_105)"/>
</g>
<mask id="mask10_1_105" style="mask-type:luminance" maskUnits="userSpaceOnUse" x="75" y="23" width="65" height="26">
<path d="M139.217 48.1954C121.553 23.3928 101.459 18.9933 79.6807 26.8212C78.1481 29.1145 76.6462 31.5581 75.2174 34.014C97.0874 33.7852 129.925 42.9131 139.217 48.1954Z" fill="white"/>
</mask>
<g mask="url(#mask10_1_105)">
<path d="M139.217 18.9933H75.2174V48.1954H139.217V18.9933Z" fill="url(#paint10_linear_1_105)"/>
</g>
<mask id="mask11_1_105" style="mask-type:luminance" maskUnits="userSpaceOnUse" x="78" y="15" width="58" height="16">
<path d="M135.63 30.7697C117.767 12.6348 100.606 11.8127 83.6692 21.3351C82.0617 23.3339 80.4457 25.6236 78.8702 28.0506C96.4904 24.1971 126.93 27.5163 135.629 30.7697" fill="white"/>
</mask>
<g mask="url(#mask11_1_105)">
<path d="M135.63 11.8127H78.8708V30.7697H135.63V11.8127Z" fill="url(#paint11_linear_1_105)"/>
</g>
<mask id="mask12_1_105" style="mask-type:luminance" maskUnits="userSpaceOnUse" x="25" y="1" width="103" height="74">
<path d="M66.9582 50.8593C78.6782 30.9661 92.1627 5.18859 127.751 1.62958C91.4632 -3.39143 70.1626 22.7143 54.2799 41.0425C42.9256 54.1453 34.34 63.2726 25.0281 54.2122C28.1165 59.3676 29.6319 67.8733 38.8592 74.4263C51.7442 75.3294 58.9383 64.472 66.9588 50.8587" fill="white"/>
</mask>
<g mask="url(#mask12_1_105)">
<path d="M127.751 -3.39142H25.0275V75.3294H127.751V-3.39142Z" fill="url(#paint12_linear_1_105)"/>
</g>
<mask id="mask13_1_105" style="mask-type:luminance" maskUnits="userSpaceOnUse" x="82" y="7" width="58" height="21">
<path d="M139.37 15.695C120.412 2.24064 103.845 8.55924 103.845 8.55924C94.7327 13.3471 87.784 20.0486 82.0538 27.3592C90.17 17.1288 129.402 13.8588 139.37 15.695Z" fill="white"/>
</mask>
<g mask="url(#mask13_1_105)">
<path d="M139.37 2.24066H82.0538V27.3592H139.37V2.24066Z" fill="url(#paint13_linear_1_105)"/>
</g>
<path fill-rule="evenodd" clip-rule="evenodd" d="M61.6243 44.8972C41.2899 76.2209 29.3804 63.299 29.3804 63.299C31.3154 67.0365 34.032 70.9986 38.8592 74.4263C51.7442 75.3294 58.9383 64.472 66.9588 50.8587C78.6788 30.9655 92.1633 5.18799 127.751 1.62899C86.3232 1.13388 61.6249 44.8966 61.6249 44.8966" fill="#102770"/>
<path d="M130.686 150.136C130.357 150.136 130.074 150.021 129.838 149.791C129.605 149.558 129.49 149.276 129.493 148.943C129.49 148.619 129.605 148.342 129.838 148.112C130.074 147.882 130.357 147.767 130.686 147.767C130.999 147.767 131.275 147.882 131.513 148.112C131.755 148.342 131.877 148.619 131.88 148.943C131.877 149.165 131.819 149.366 131.705 149.548C131.594 149.727 131.449 149.871 131.27 149.979C131.091 150.084 130.897 150.136 130.686 150.136Z" fill="black"/>
<path d="M128.299 144.545H125.896C125.879 144.347 125.833 144.166 125.759 144.004C125.688 143.842 125.589 143.703 125.461 143.587C125.336 143.467 125.184 143.376 125.005 143.314C124.826 143.249 124.623 143.216 124.396 143.216C123.998 143.216 123.661 143.313 123.386 143.506C123.113 143.699 122.906 143.976 122.764 144.337C122.624 144.697 122.555 145.131 122.555 145.636C122.555 146.17 122.626 146.618 122.768 146.979C122.913 147.337 123.122 147.607 123.394 147.788C123.667 147.967 123.995 148.057 124.379 148.057C124.597 148.057 124.793 148.03 124.967 147.976C125.14 147.919 125.291 147.838 125.418 147.733C125.546 147.628 125.65 147.501 125.729 147.354C125.812 147.203 125.867 147.034 125.896 146.847L128.299 146.864C128.271 147.233 128.167 147.609 127.988 147.993C127.809 148.374 127.555 148.726 127.225 149.05C126.898 149.371 126.494 149.629 126.011 149.825C125.528 150.021 124.967 150.119 124.327 150.119C123.526 150.119 122.808 149.947 122.171 149.604C121.538 149.26 121.036 148.754 120.667 148.087C120.3 147.419 120.117 146.602 120.117 145.636C120.117 144.665 120.305 143.847 120.68 143.182C121.055 142.514 121.56 142.01 122.197 141.669C122.833 141.325 123.543 141.153 124.327 141.153C124.879 141.153 125.386 141.229 125.849 141.379C126.312 141.53 126.718 141.75 127.068 142.04C127.417 142.327 127.698 142.68 127.911 143.101C128.124 143.521 128.254 144.003 128.299 144.545Z" fill="black"/>
<path d="M119.031 141.273V150H117.053L113.9 145.415H113.849V150H111.479V141.273H113.491L116.593 145.841H116.661V141.273H119.031Z" fill="black"/>
<path d="M110.357 141.273V150H107.987V141.273H110.357Z" fill="black"/>
<path d="M104.774 148.807L104.74 149.284C104.712 149.693 104.643 150.085 104.536 150.46C104.43 150.835 104.318 151.168 104.199 151.457C104.082 151.747 103.99 151.972 103.922 152.131H102.473C102.518 151.972 102.582 151.741 102.665 151.44C102.75 151.142 102.827 150.804 102.895 150.426C102.966 150.051 103.001 149.67 103.001 149.284V148.807H104.774Z" fill="black"/>
<path d="M94.9911 150V141.273H101.281V143.182H97.3605V144.682H100.957V146.591H97.3605V148.091H101.264V150H94.9911Z" fill="black"/>
<path d="M91.3893 144.153C91.3523 144.003 91.2941 143.871 91.2145 143.757C91.135 143.641 91.0356 143.543 90.9163 143.463C90.7998 143.381 90.6634 143.32 90.5072 143.28C90.3538 143.237 90.1847 143.216 90.0001 143.216C89.6023 143.216 89.2628 143.311 88.9816 143.501C88.7032 143.692 88.4901 143.966 88.3424 144.324C88.1975 144.682 88.1251 145.114 88.1251 145.619C88.1251 146.131 88.1947 146.568 88.3339 146.932C88.4731 147.295 88.6805 147.574 88.956 147.767C89.2316 147.96 89.5739 148.057 89.983 148.057C90.3438 148.057 90.6435 148.004 90.8822 147.899C91.1236 147.794 91.304 147.645 91.4234 147.452C91.5427 147.259 91.6023 147.031 91.6023 146.77L92.0114 146.813H90.0171V145.125H93.8864V146.335C93.8864 147.131 93.7174 147.811 93.3793 148.376C93.0441 148.939 92.581 149.371 91.9901 149.672C91.402 149.97 90.7273 150.119 89.966 150.119C89.1165 150.119 88.3708 149.939 87.7288 149.578C87.0867 149.217 86.5853 148.703 86.2245 148.036C85.8665 147.368 85.6876 146.574 85.6876 145.653C85.6876 144.932 85.7969 144.293 86.0157 143.736C86.2373 143.179 86.5441 142.709 86.9361 142.325C87.3282 141.939 87.7813 141.648 88.2955 141.452C88.8097 141.253 89.3609 141.153 89.9489 141.153C90.466 141.153 90.9461 141.227 91.3893 141.375C91.8353 141.52 92.2288 141.727 92.5697 141.997C92.9134 142.264 93.1904 142.581 93.4006 142.947C93.6109 143.314 93.7387 143.716 93.7841 144.153H91.3893Z" fill="black"/>
<path d="M84.6009 141.273V150H82.6236L79.4702 145.415H79.4191V150H77.0497V141.273H79.0611L82.1634 145.841H82.2316V141.273H84.6009Z" fill="black"/>
<path d="M69.766 150H67.2092L70.0899 141.273H73.3285L76.2092 150H73.6524L71.7433 143.676H71.6751L69.766 150ZM69.2887 146.557H74.0955V148.33H69.2887V146.557Z" fill="black"/>
<path d="M58.499 150V141.273H60.8683V144.682H64.0046V141.273H66.374V150H64.0046V146.591H60.8683V150H58.499Z" fill="black"/>
<path d="M57.424 144.545H55.0206C55.0036 144.347 54.9581 144.166 54.8842 144.004C54.8132 143.842 54.7138 143.703 54.5859 143.587C54.4609 143.467 54.309 143.376 54.13 143.314C53.951 143.249 53.7479 143.216 53.5206 143.216C53.1229 143.216 52.7862 143.313 52.5107 143.506C52.2379 143.699 52.0305 143.976 51.8885 144.337C51.7493 144.697 51.6797 145.131 51.6797 145.636C51.6797 146.17 51.7507 146.618 51.8928 146.979C52.0376 147.337 52.2464 147.607 52.5192 147.788C52.7919 147.967 53.12 148.057 53.5036 148.057C53.7223 148.057 53.9183 148.03 54.0916 147.976C54.2649 147.919 54.4155 147.838 54.5433 147.733C54.6712 147.628 54.7749 147.501 54.8544 147.354C54.9368 147.203 54.9922 147.034 55.0206 146.847L57.424 146.864C57.3956 147.233 57.2919 147.609 57.1129 147.993C56.9339 148.374 56.6797 148.726 56.3501 149.05C56.0234 149.371 55.6186 149.629 55.1357 149.825C54.6527 150.021 54.0916 150.119 53.4524 150.119C52.6513 150.119 51.9325 149.947 51.2962 149.604C50.6626 149.26 50.1612 148.754 49.7919 148.087C49.4254 147.419 49.2422 146.602 49.2422 145.636C49.2422 144.665 49.4297 143.847 49.8047 143.182C50.1797 142.514 50.6854 142.01 51.3217 141.669C51.9581 141.325 52.6683 141.153 53.4524 141.153C54.0036 141.153 54.5107 141.229 54.9737 141.379C55.4368 141.53 55.843 141.75 56.1925 142.04C56.5419 142.327 56.8232 142.68 57.0362 143.101C57.2493 143.521 57.3786 144.003 57.424 144.545Z" fill="black"/>
<path d="M40.0302 150V141.273H42.3995V148.091H45.9279V150H40.0302Z" fill="black"/>
<path d="M32.7465 150H30.1896L33.0703 141.273H36.309L39.1896 150H36.6328L34.7237 143.676H34.6555L32.7465 150ZM32.2692 146.557H37.076V148.33H32.2692V146.557Z" fill="black"/>
<path d="M29.3566 141.273V150H26.9872V141.273H29.3566Z" fill="black"/>
<path d="M25.9123 144.545H23.5089C23.4918 144.347 23.4464 144.166 23.3725 144.004C23.3015 143.842 23.2021 143.703 23.0742 143.587C22.9492 143.467 22.7972 143.376 22.6183 143.314C22.4393 143.249 22.2361 143.216 22.0089 143.216C21.6111 143.216 21.2745 143.313 20.9989 143.506C20.7262 143.699 20.5188 143.976 20.3768 144.337C20.2376 144.697 20.168 145.131 20.168 145.636C20.168 146.17 20.239 146.618 20.381 146.979C20.5259 147.337 20.7347 147.607 21.0075 147.788C21.2802 147.967 21.6083 148.057 21.9918 148.057C22.2106 148.057 22.4066 148.03 22.5799 147.976C22.7532 147.919 22.9038 147.838 23.0316 147.733C23.1594 147.628 23.2631 147.501 23.3427 147.354C23.4251 147.203 23.4805 147.034 23.5089 146.847L25.9123 146.864C25.8839 147.233 25.7802 147.609 25.6012 147.993C25.4222 148.374 25.168 148.726 24.8384 149.05C24.5117 149.371 24.1069 149.629 23.6239 149.825C23.141 150.021 22.5799 150.119 21.9407 150.119C21.1396 150.119 20.4208 149.947 19.7844 149.604C19.1509 149.26 18.6495 148.754 18.2802 148.087C17.9137 147.419 17.7305 146.602 17.7305 145.636C17.7305 144.665 17.918 143.847 18.293 143.182C18.668 142.514 19.1736 142.01 19.81 141.669C20.4464 141.325 21.1566 141.153 21.9407 141.153C22.4918 141.153 22.9989 141.229 23.462 141.379C23.9251 141.53 24.3313 141.75 24.6808 142.04C25.0302 142.327 25.3114 142.68 25.5245 143.101C25.7376 143.521 25.8668 144.003 25.9123 144.545Z" fill="black"/>
<path d="M16.6683 145.636C16.6683 146.608 16.4794 147.428 16.1016 148.095C15.7237 148.76 15.2138 149.264 14.5717 149.608C13.9297 149.949 13.2138 150.119 12.424 150.119C11.6286 150.119 10.9098 149.947 10.2678 149.604C9.62855 149.257 9.12003 148.751 8.74219 148.087C8.36719 147.419 8.17969 146.602 8.17969 145.636C8.17969 144.665 8.36719 143.847 8.74219 143.182C9.12003 142.514 9.62855 142.01 10.2678 141.669C10.9098 141.325 11.6286 141.153 12.424 141.153C13.2138 141.153 13.9297 141.325 14.5717 141.669C15.2138 142.01 15.7237 142.514 16.1016 143.182C16.4794 143.847 16.6683 144.665 16.6683 145.636ZM14.2308 145.636C14.2308 145.114 14.1612 144.673 14.022 144.315C13.8857 143.955 13.6825 143.682 13.4126 143.497C13.1456 143.31 12.8161 143.216 12.424 143.216C12.032 143.216 11.701 143.31 11.4311 143.497C11.1641 143.682 10.9609 143.955 10.8217 144.315C10.6854 144.673 10.6172 145.114 10.6172 145.636C10.6172 146.159 10.6854 146.601 10.8217 146.962C10.9609 147.32 11.1641 147.592 11.4311 147.78C11.701 147.964 12.032 148.057 12.424 148.057C12.8161 148.057 13.1456 147.964 13.4126 147.78C13.6825 147.592 13.8857 147.32 14.022 146.962C14.1612 146.601 14.2308 146.159 14.2308 145.636Z" fill="black"/>
<path d="M4.92614 144C4.90341 143.716 4.79688 143.494 4.60653 143.335C4.41903 143.176 4.13352 143.097 3.75 143.097C3.50568 143.097 3.3054 143.126 3.14915 143.186C2.99574 143.243 2.8821 143.321 2.80824 143.42C2.73438 143.52 2.69602 143.634 2.69318 143.761C2.6875 143.866 2.70597 143.962 2.74858 144.047C2.79403 144.129 2.86506 144.205 2.96165 144.273C3.05824 144.338 3.18182 144.398 3.33239 144.452C3.48295 144.506 3.66193 144.554 3.86932 144.597L4.58523 144.75C5.06818 144.852 5.48153 144.987 5.82528 145.155C6.16903 145.322 6.45028 145.52 6.66903 145.747C6.88778 145.972 7.0483 146.224 7.15057 146.506C7.25568 146.787 7.30966 147.094 7.3125 147.426C7.30966 148 7.16619 148.486 6.8821 148.884C6.59801 149.281 6.19176 149.584 5.66335 149.791C5.13778 149.999 4.50568 150.102 3.76705 150.102C3.00852 150.102 2.34659 149.99 1.78125 149.766C1.21875 149.541 0.78125 149.196 0.46875 148.73C0.159091 148.261 0.00284091 147.662 0 146.932H2.25C2.2642 147.199 2.33097 147.423 2.45028 147.605C2.5696 147.787 2.73722 147.925 2.95312 148.018C3.17188 148.112 3.43182 148.159 3.73295 148.159C3.9858 148.159 4.19744 148.128 4.3679 148.065C4.53835 148.003 4.66761 147.916 4.75568 147.805C4.84375 147.695 4.8892 147.568 4.89205 147.426C4.8892 147.293 4.84517 147.176 4.75994 147.077C4.67756 146.974 4.54119 146.884 4.35085 146.804C4.16051 146.722 3.90341 146.645 3.57955 146.574L2.71023 146.386C1.9375 146.219 1.32812 145.939 0.882102 145.547C0.43892 145.152 0.21875 144.614 0.221591 143.932C0.21875 143.378 0.366477 142.893 0.664773 142.479C0.965909 142.061 1.3821 141.736 1.91335 141.503C2.44744 141.27 3.05966 141.153 3.75 141.153C4.45455 141.153 5.06392 141.271 5.57812 141.507C6.09233 141.743 6.48864 142.075 6.76705 142.504C7.0483 142.93 7.19034 143.429 7.19318 144H4.92614Z" fill="black"/>
<defs>
<linearGradient id="paint0_linear_1_105" x1="71.4031" y1="93.4852" x2="29.9583" y2="124.735" gradientUnits="userSpaceOnUse">
<stop stop-color="#00478F"/>
<stop offset="1" stop-color="#29C4FF"/>
</linearGradient>
<linearGradient id="paint1_linear_1_105" x1="77.9585" y1="92.9735" x2="43.6949" y2="138.708" gradientUnits="userSpaceOnUse">
<stop stop-color="#00478F"/>
<stop offset="1" stop-color="#29C4FF"/>
</linearGradient>
<linearGradient id="paint2_linear_1_105" x1="81.8617" y1="92.7134" x2="71.7596" y2="132.081" gradientUnits="userSpaceOnUse">
<stop stop-color="#00478F"/>
<stop offset="1" stop-color="#29C4FF"/>
</linearGradient>
<linearGradient id="paint3_linear_1_105" x1="49.6178" y1="13.2397" x2="55.7339" y2="80.2056" gradientUnits="userSpaceOnUse">
<stop stop-color="#FFCE4B"/>
<stop offset="1" stop-color="#D3226F"/>
</linearGradient>
<linearGradient id="paint4_linear_1_105" x1="58.3734" y1="65.4089" x2="60.9796" y2="89.7489" gradientUnits="userSpaceOnUse">
<stop stop-color="#00478F"/>
<stop offset="1" stop-color="#51F4E9"/>
</linearGradient>
<linearGradient id="paint5_linear_1_105" x1="64.5207" y1="58.6363" x2="69.9712" y2="97.5019" gradientUnits="userSpaceOnUse">
<stop stop-color="#00478F"/>
<stop offset="1" stop-color="#29C4FF"/>
</linearGradient>
<linearGradient id="paint6_linear_1_105" x1="65.6312" y1="44.861" x2="85.1324" y2="83.6819" gradientUnits="userSpaceOnUse">
<stop stop-color="#003780"/>
<stop offset="1" stop-color="#B222D3"/>
</linearGradient>
<linearGradient id="paint7_linear_1_105" x1="83.5548" y1="61.8271" x2="108.148" y2="78.2479" gradientUnits="userSpaceOnUse">
<stop stop-color="#4E046D"/>
<stop offset="1" stop-color="#FF8BC7"/>
</linearGradient>
<linearGradient id="paint8_linear_1_105" x1="73.0909" y1="40.2663" x2="122.985" y2="85.0524" gradientUnits="userSpaceOnUse">
<stop stop-color="#4E046D"/>
<stop offset="1" stop-color="#FF8BC7"/>
</linearGradient>
<linearGradient id="paint9_linear_1_105" x1="96.0775" y1="43.5708" x2="133.583" y2="62.6756" gradientUnits="userSpaceOnUse">
<stop stop-color="#B91C58"/>
<stop offset="1" stop-color="#F95C97"/>
</linearGradient>
<linearGradient id="paint10_linear_1_105" x1="86.2287" y1="29.6783" x2="147.691" y2="41.1449" gradientUnits="userSpaceOnUse">
<stop stop-color="#B91C58"/>
<stop offset="1" stop-color="#FF8BC7"/>
</linearGradient>
<linearGradient id="paint11_linear_1_105" x1="132.604" y1="25.7346" x2="90.4681" y2="18.3503" gradientUnits="userSpaceOnUse">
<stop stop-color="#FFCE4B"/>
<stop offset="1" stop-color="#D3226F"/>
</linearGradient>
<linearGradient id="paint12_linear_1_105" x1="59.1414" y1="79.9565" x2="84.9802" y2="14.06" gradientUnits="userSpaceOnUse">
<stop stop-color="#00478F"/>
<stop offset="1" stop-color="#C11FDA"/>
</linearGradient>
<linearGradient id="paint13_linear_1_105" x1="133.413" y1="17.0417" x2="74.5897" y2="11.233" gradientUnits="userSpaceOnUse">
<stop stop-color="#FFCE4B"/>
<stop offset="1" stop-color="#D3226F"/>
</linearGradient>
</defs>
</svg>
